<?xml version="1.0" standalone="no"?>
<!DOCTYPE svg PUBLIC "-//W3C//DTD SVG 20010904//EN"
 "http://www.w3.org/TR/2001/REC-SVG-20010904/DTD/svg10.dtd">
<svg version="1.0" xmlns="http://www.w3.org/2000/svg"
 width="500.000000pt" height="500.000000pt" viewBox="0 0 500.000000 500.000000"
 preserveAspectRatio="xMidYMid meet">
<metadata>
Created by potrace 1.14, written by Peter Selinger 2001-2017
</metadata>
<g transform="translate(0.000000,500.000000) scale(0.100000,-0.100000)"
fill="#000000" stroke="none">
<path d="M978 4832 l-28 -3 0 -2345 0 -2344 1573 0 1574 0 -1 377 -1 377
-1090 0 -1090 1 0 638 c0 414 4 641 10 646 6 4 423 7 928 7 910 -1 917 -1 917
19 4 134 1 708 -3 712 -3 2 -421 6 -928 6 l-923 2 -1 572 c0 374 3 574 10 576
6 2 495 3 1088 3 592 -1 1077 1 1078 4 1 3 2 173 2 378 2 366 2 372 -18 372
-101 3 -3077 4 -3097 2z"/>
</g>
</svg>
